<?xml version="1.0" encoding="UTF-8"?>
<svg xmlns="http://www.w3.org/2000/svg" width="512" height="512" viewBox="0 0 512 512">
  <defs>
    <linearGradient id="bg" x1="0%" y1="0%" x2="100%" y2="100%">
      <stop offset="0%" style="stop-color:#F06A6A"/>
      <stop offset="100%" style="stop-color:#c05454"/>
    </linearGradient>
  </defs>
  <!-- Rounded rectangle background (iOS style) -->
  <rect width="512" height="512" rx="112" fill="url(#bg)"/>
  <!-- Icon centered and scaled -->
  <g transform="translate(106, 106) scale(12.5)">
    <path d="M18.78 12.653c-2.882 0-5.22 2.336-5.22 5.22s2.338 5.22 5.22 5.22 5.22-2.34 5.22-5.22-2.336-5.22-5.22-5.22zm-13.56 0c-2.88 0-5.22 2.337-5.22 5.22s2.338 5.22 5.22 5.22 5.22-2.338 5.22-5.22-2.336-5.22-5.22-5.22zm12-6.525c0 2.883-2.337 5.22-5.22 5.22-2.882 0-5.22-2.337-5.22-5.22 0-2.88 2.338-5.22 5.22-5.22 2.883 0 5.22 2.34 5.22 5.22z" fill="white"/>
  </g>
</svg>