<?xml version="1.0" encoding="UTF-8"?>
<svg xmlns="http://www.w3.org/2000/svg" width="512" height="512" viewBox="0 0 512 512">
  <defs>
    <linearGradient id="bg" x1="0%" y1="0%" x2="100%" y2="100%">
      <stop offset="0%" style="stop-color:#FF3008"/>
      <stop offset="100%" style="stop-color:#cc2606"/>
    </linearGradient>
  </defs>
  <!-- Rounded rectangle background (iOS style) -->
  <rect width="512" height="512" rx="112" fill="url(#bg)"/>
  <!-- Icon centered and scaled -->
  <g transform="translate(106, 106) scale(12.5)">
    <path d="M23.071 8.409a6.09 6.09 0 00-5.396-3.228H.584A.589.589 0 00.17 6.184L3.894 9.93a1.752 1.752 0 001.242.516h12.049a1.554 1.554 0 11.031 3.108H8.91a.589.589 0 00-.415 1.003l3.725 3.747a1.75 1.75 0 001.242.516h3.757c4.887 0 8.584-5.225 5.852-10.413" fill="white"/>
  </g>
</svg>