<?xml version="1.0" encoding="UTF-8"?>
<svg xmlns="http://www.w3.org/2000/svg" width="512" height="512" viewBox="0 0 512 512">
  <defs>
    <linearGradient id="bg" x1="0%" y1="0%" x2="100%" y2="100%">
      <stop offset="0%" style="stop-color:#0061FF"/>
      <stop offset="100%" style="stop-color:#004dcc"/>
    </linearGradient>
  </defs>
  <!-- Rounded rectangle background (iOS style) -->
  <rect width="512" height="512" rx="112" fill="url(#bg)"/>
  <!-- Icon centered and scaled -->
  <g transform="translate(106, 106) scale(12.5)">
    <path d="M6 1.807L0 5.629l6 3.822 6.001-3.822L6 1.807zM18 1.807l-6 3.822 6 3.822 6-3.822-6-3.822zM0 13.274l6 3.822 6.001-3.822L6 9.452l-6 3.822zM18 9.452l-6 3.822 6 3.822 6-3.822-6-3.822zM6 18.371l6.001 3.822 6-3.822-6-3.822L6 18.371z" fill="white"/>
  </g>
</svg>