<?xml version="1.0" encoding="UTF-8"?>
<svg xmlns="http://www.w3.org/2000/svg" width="512" height="512" viewBox="0 0 512 512">
  <defs>
    <linearGradient id="bg" x1="0%" y1="0%" x2="100%" y2="100%">
      <stop offset="0%" style="stop-color:#0052CC"/>
      <stop offset="100%" style="stop-color:#0041a3"/>
    </linearGradient>
  </defs>
  <!-- Rounded rectangle background (iOS style) -->
  <rect width="512" height="512" rx="112" fill="url(#bg)"/>
  <!-- Icon centered and scaled -->
  <g transform="translate(106, 106) scale(12.5)">
    <path d="M21.147 0H2.853A2.86 2.86 0 000 2.853v18.294A2.86 2.86 0 002.853 24h18.294A2.86 2.86 0 0024 21.147V2.853A2.86 2.86 0 0021.147 0zM10.34 17.287a.953.953 0 01-.953.953h-4a.954.954 0 01-.954-.953V5.38a.953.953 0 01.954-.953h4a.954.954 0 01.953.953zm9.233-5.467a.944.944 0 01-.953.947h-4a.947.947 0 01-.953-.947V5.38a.953.953 0 01.953-.953h4a.954.954 0 01.953.953z" fill="white"/>
  </g>
</svg>